<mxfile host="app.diagrams.net" modified="2024-02-23T15:45:47.639Z" agent="Mozilla/5.0 (Windows NT 10.0; Win64; x64; rv:122.0) Gecko/20100101 Firefox/122.0" etag="409KL1fY9BVN-11aYc43" version="23.1.2" type="github">
  <diagram id="C5RBs43oDa-KdzZeNtuy" name="Page-1">
    <mxGraphModel dx="1195" dy="622" grid="1" gridSize="10" guides="1" tooltips="1" connect="1" arrows="1" fold="1" page="1" pageScale="1" pageWidth="827" pageHeight="1169" math="0" shadow="0">
      <root>
        <mxCell id="WIyWlLk6GJQsqaUBKTNV-0" />
        <mxCell id="WIyWlLk6GJQsqaUBKTNV-1" parent="WIyWlLk6GJQsqaUBKTNV-0" />
        <mxCell id="pfcmGy1nDGgXIzut1eBz-8" style="edgeStyle=orthogonalEdgeStyle;rounded=0;orthogonalLoop=1;jettySize=auto;html=1;entryX=0.5;entryY=0;entryDx=0;entryDy=0;" edge="1" parent="WIyWlLk6GJQsqaUBKTNV-1" source="WIyWlLk6GJQsqaUBKTNV-3" target="pfcmGy1nDGgXIzut1eBz-5">
          <mxGeometry relative="1" as="geometry" />
        </mxCell>
        <mxCell id="WIyWlLk6GJQsqaUBKTNV-3" value="Initalize local variables" style="rounded=1;whiteSpace=wrap;html=1;fontSize=12;glass=0;strokeWidth=1;shadow=0;" parent="WIyWlLk6GJQsqaUBKTNV-1" vertex="1">
          <mxGeometry x="410" y="130" width="120" height="40" as="geometry" />
        </mxCell>
        <mxCell id="WIyWlLk6GJQsqaUBKTNV-5" value="Yes" style="edgeStyle=orthogonalEdgeStyle;rounded=0;html=1;jettySize=auto;orthogonalLoop=1;fontSize=11;endArrow=block;endFill=0;endSize=8;strokeWidth=1;shadow=0;labelBackgroundColor=none;entryX=0;entryY=0.5;entryDx=0;entryDy=0;" parent="WIyWlLk6GJQsqaUBKTNV-1" source="WIyWlLk6GJQsqaUBKTNV-6" target="pfcmGy1nDGgXIzut1eBz-12" edge="1">
          <mxGeometry x="0.206" y="10" relative="1" as="geometry">
            <mxPoint as="offset" />
            <mxPoint x="380" y="370" as="targetPoint" />
          </mxGeometry>
        </mxCell>
        <mxCell id="pfcmGy1nDGgXIzut1eBz-19" value="" style="edgeStyle=orthogonalEdgeStyle;rounded=0;orthogonalLoop=1;jettySize=auto;html=1;" edge="1" parent="WIyWlLk6GJQsqaUBKTNV-1" source="WIyWlLk6GJQsqaUBKTNV-6" target="pfcmGy1nDGgXIzut1eBz-11">
          <mxGeometry relative="1" as="geometry" />
        </mxCell>
        <mxCell id="WIyWlLk6GJQsqaUBKTNV-6" value="Update OS-9 Bootfile" style="rhombus;whiteSpace=wrap;html=1;shadow=0;fontFamily=Helvetica;fontSize=12;align=center;strokeWidth=1;spacing=6;spacingTop=-4;" parent="WIyWlLk6GJQsqaUBKTNV-1" vertex="1">
          <mxGeometry x="220" y="250" width="110" height="100" as="geometry" />
        </mxCell>
        <mxCell id="pfcmGy1nDGgXIzut1eBz-0" value="&lt;div&gt;UpdateService&lt;/div&gt;" style="text;html=1;align=center;verticalAlign=middle;resizable=0;points=[];autosize=1;strokeColor=none;fillColor=none;" vertex="1" parent="WIyWlLk6GJQsqaUBKTNV-1">
          <mxGeometry x="30" y="20" width="100" height="30" as="geometry" />
        </mxCell>
        <mxCell id="pfcmGy1nDGgXIzut1eBz-1" value="&lt;div&gt;PrepareUpdate&lt;/div&gt;" style="text;html=1;align=center;verticalAlign=middle;resizable=0;points=[];autosize=1;strokeColor=none;fillColor=none;" vertex="1" parent="WIyWlLk6GJQsqaUBKTNV-1">
          <mxGeometry x="30" y="50" width="110" height="30" as="geometry" />
        </mxCell>
        <mxCell id="pfcmGy1nDGgXIzut1eBz-3" style="edgeStyle=orthogonalEdgeStyle;rounded=0;orthogonalLoop=1;jettySize=auto;html=1;entryX=0.5;entryY=0;entryDx=0;entryDy=0;" edge="1" parent="WIyWlLk6GJQsqaUBKTNV-1" source="pfcmGy1nDGgXIzut1eBz-2" target="WIyWlLk6GJQsqaUBKTNV-3">
          <mxGeometry relative="1" as="geometry" />
        </mxCell>
        <mxCell id="pfcmGy1nDGgXIzut1eBz-2" value="Start" style="strokeWidth=2;html=1;shape=mxgraph.flowchart.start_1;whiteSpace=wrap;" vertex="1" parent="WIyWlLk6GJQsqaUBKTNV-1">
          <mxGeometry x="220" y="80" width="100" height="60" as="geometry" />
        </mxCell>
        <mxCell id="pfcmGy1nDGgXIzut1eBz-9" value="" style="edgeStyle=orthogonalEdgeStyle;rounded=0;orthogonalLoop=1;jettySize=auto;html=1;entryX=0.5;entryY=0;entryDx=0;entryDy=0;" edge="1" parent="WIyWlLk6GJQsqaUBKTNV-1" source="pfcmGy1nDGgXIzut1eBz-5" target="WIyWlLk6GJQsqaUBKTNV-6">
          <mxGeometry relative="1" as="geometry" />
        </mxCell>
        <mxCell id="pfcmGy1nDGgXIzut1eBz-5" value="Unzip selected update folder" style="rounded=1;whiteSpace=wrap;html=1;fontSize=12;glass=0;strokeWidth=1;shadow=0;" vertex="1" parent="WIyWlLk6GJQsqaUBKTNV-1">
          <mxGeometry x="215" y="180" width="120" height="40" as="geometry" />
        </mxCell>
        <mxCell id="pfcmGy1nDGgXIzut1eBz-10" value="No" style="edgeStyle=orthogonalEdgeStyle;rounded=0;html=1;jettySize=auto;orthogonalLoop=1;fontSize=11;endArrow=block;endFill=0;endSize=8;strokeWidth=1;shadow=0;labelBackgroundColor=none;entryX=0.5;entryY=0;entryDx=0;entryDy=0;exitX=0.5;exitY=1;exitDx=0;exitDy=0;" edge="1" parent="WIyWlLk6GJQsqaUBKTNV-1" source="WIyWlLk6GJQsqaUBKTNV-6" target="pfcmGy1nDGgXIzut1eBz-11">
          <mxGeometry x="-0.5" y="-15" relative="1" as="geometry">
            <mxPoint as="offset" />
            <mxPoint x="270" y="420" as="sourcePoint" />
            <mxPoint x="270" y="490" as="targetPoint" />
          </mxGeometry>
        </mxCell>
        <mxCell id="pfcmGy1nDGgXIzut1eBz-18" value="" style="edgeStyle=orthogonalEdgeStyle;rounded=0;orthogonalLoop=1;jettySize=auto;html=1;" edge="1" parent="WIyWlLk6GJQsqaUBKTNV-1" source="pfcmGy1nDGgXIzut1eBz-11" target="pfcmGy1nDGgXIzut1eBz-16">
          <mxGeometry relative="1" as="geometry" />
        </mxCell>
        <mxCell id="pfcmGy1nDGgXIzut1eBz-11" value="&lt;div&gt;extract all updatefiles&lt;/div&gt;&lt;div&gt;from update folder&lt;br&gt;&lt;/div&gt;" style="rounded=1;whiteSpace=wrap;html=1;fontSize=12;glass=0;strokeWidth=1;shadow=0;" vertex="1" parent="WIyWlLk6GJQsqaUBKTNV-1">
          <mxGeometry x="215" y="430" width="120" height="40" as="geometry" />
        </mxCell>
        <mxCell id="pfcmGy1nDGgXIzut1eBz-14" value="" style="edgeStyle=orthogonalEdgeStyle;rounded=0;orthogonalLoop=1;jettySize=auto;html=1;" edge="1" parent="WIyWlLk6GJQsqaUBKTNV-1" source="pfcmGy1nDGgXIzut1eBz-12" target="pfcmGy1nDGgXIzut1eBz-13">
          <mxGeometry relative="1" as="geometry" />
        </mxCell>
        <mxCell id="pfcmGy1nDGgXIzut1eBz-12" value="extract bootfile formthe image folder" style="rounded=1;whiteSpace=wrap;html=1;fontSize=12;glass=0;strokeWidth=1;shadow=0;" vertex="1" parent="WIyWlLk6GJQsqaUBKTNV-1">
          <mxGeometry x="395" y="280" width="120" height="40" as="geometry" />
        </mxCell>
        <mxCell id="pfcmGy1nDGgXIzut1eBz-15" style="edgeStyle=orthogonalEdgeStyle;rounded=0;orthogonalLoop=1;jettySize=auto;html=1;entryX=0.5;entryY=0;entryDx=0;entryDy=0;" edge="1" parent="WIyWlLk6GJQsqaUBKTNV-1" source="pfcmGy1nDGgXIzut1eBz-13" target="pfcmGy1nDGgXIzut1eBz-11">
          <mxGeometry relative="1" as="geometry">
            <mxPoint x="360" y="370" as="targetPoint" />
          </mxGeometry>
        </mxCell>
        <mxCell id="pfcmGy1nDGgXIzut1eBz-13" value="&lt;div&gt;&lt;font style=&quot;font-size: 11px;&quot;&gt;Add bootfile&amp;nbsp;&lt;/font&gt;&lt;/div&gt;&lt;div&gt;&lt;font style=&quot;font-size: 11px;&quot;&gt;to update list&lt;/font&gt;&lt;/div&gt;" style="shape=parallelogram;html=1;strokeWidth=2;perimeter=parallelogramPerimeter;whiteSpace=wrap;rounded=1;arcSize=12;size=0.23;" vertex="1" parent="WIyWlLk6GJQsqaUBKTNV-1">
          <mxGeometry x="410" y="360" width="90" height="60" as="geometry" />
        </mxCell>
        <mxCell id="pfcmGy1nDGgXIzut1eBz-16" value="&lt;div&gt;&lt;font style=&quot;font-size: 11px;&quot;&gt;Add files&lt;/font&gt;&lt;/div&gt;&lt;div&gt;&lt;font style=&quot;font-size: 11px;&quot;&gt;to update list&lt;/font&gt;&lt;/div&gt;" style="shape=parallelogram;html=1;strokeWidth=2;perimeter=parallelogramPerimeter;whiteSpace=wrap;rounded=1;arcSize=12;size=0.23;" vertex="1" parent="WIyWlLk6GJQsqaUBKTNV-1">
          <mxGeometry x="230" y="500" width="90" height="60" as="geometry" />
        </mxCell>
      </root>
    </mxGraphModel>
  </diagram>
</mxfile>
